<?xml version="1.0" encoding="UTF-8" standalone="no"?>
<!-- Created with Inkscape (http://www.inkscape.org/) -->

<svg
   xmlns:dc="http://purl.org/dc/elements/1.1/"
   xmlns:cc="http://creativecommons.org/ns#"
   xmlns:rdf="http://www.w3.org/1999/02/22-rdf-syntax-ns#"
   xmlns:svg="http://www.w3.org/2000/svg"
   xmlns="http://www.w3.org/2000/svg"
   xmlns:sodipodi="http://sodipodi.sourceforge.net/DTD/sodipodi-0.dtd"
   xmlns:inkscape="http://www.inkscape.org/namespaces/inkscape"
   width="210mm"
   height="297mm"
   viewBox="0 0 210 297"
   version="1.1"
   id="svg8"
   inkscape:version="0.92.4 5da689c313, 2019-01-14"
   sodipodi:docname="testfigure.svg">
  <defs
     id="defs2" />
  <sodipodi:namedview
     id="base"
     pagecolor="#ffffff"
     bordercolor="#666666"
     borderopacity="1.0"
     inkscape:pageopacity="0.0"
     inkscape:pageshadow="2"
     inkscape:zoom="1.979899"
     inkscape:cx="426.17958"
     inkscape:cy="759.01436"
     inkscape:document-units="mm"
     inkscape:current-layer="layer1"
     showgrid="false"
     inkscape:window-width="1920"
     inkscape:window-height="1049"
     inkscape:window-x="2560"
     inkscape:window-y="0"
     inkscape:window-maximized="1" />
  <metadata
     id="metadata5">
    <rdf:RDF>
      <cc:Work
         rdf:about="">
        <dc:format>image/svg+xml</dc:format>
        <dc:type
           rdf:resource="http://purl.org/dc/dcmitype/StillImage" />
        <dc:title></dc:title>
      </cc:Work>
    </rdf:RDF>
  </metadata>
  <g
     inkscape:label="Layer 1"
     inkscape:groupmode="layer"
     id="layer1">
    <path
       style="fill:none;stroke:#000000;stroke-width:0.26458332px;stroke-linecap:butt;stroke-linejoin:miter;stroke-opacity:1"
       d="m 50.246671,90.667924 c 0,-0.311815 0,-0.623629 0,-0.935443 0,-0.04455 -0.01992,-0.0938 0,-0.133636 0.02817,-0.05634 0.105463,-0.07729 0.133633,-0.133635 0.03984,-0.07968 -0.063,-0.204272 0,-0.267269 0.0315,-0.0315 0.113715,0.03984 0.133636,0 0.05976,-0.119526 -0.05976,-0.281377 0,-0.400905 0.02817,-0.05635 0.105463,-0.07729 0.133636,-0.133633 0.03984,-0.07968 -0.07968,-0.227428 0,-0.267271 0.07968,-0.03984 0.187584,0.03984 0.267268,0 0.03984,-0.01992 -0.01992,-0.09379 0,-0.133633 0.02817,-0.05635 0.105463,-0.07729 0.133636,-0.133636 0.01992,-0.03984 -0.01992,-0.09379 0,-0.133636 0.02817,-0.05634 0.10546,-0.07729 0.133633,-0.133633 0.01992,-0.03984 -0.01992,-0.09379 0,-0.133636 0.02817,-0.05635 0.105463,-0.07729 0.133636,-0.133633 0.01992,-0.03984 -0.0315,-0.102137 0,-0.133636 0.0315,-0.0315 0.113713,0.03984 0.133636,0 0.03984,-0.07968 -0.02817,-0.182753 0,-0.267268 0.01992,-0.05976 0.10546,-0.07729 0.133633,-0.133636 0.01992,-0.03984 -0.0315,-0.102137 0,-0.133636 0.0315,-0.0315 0.102137,0.0315 0.133636,0 0.0315,-0.0315 -0.0315,-0.102134 0,-0.133633 0.0315,-0.0315 0.102137,0.0315 0.133633,0 0.063,-0.063 -0.063,-0.204274 0,-0.267269 0.0315,-0.0315 0.113715,0.03984 0.133635,0 0.03984,-0.07968 -0.063,-0.204274 0,-0.267271 0.063,-0.063 0.204275,0.063 0.267269,0 0.063,-0.063 -0.03984,-0.187585 0,-0.267269 0.01992,-0.03984 0.102137,0.0315 0.133636,0 0.0315,-0.0315 -0.03984,-0.113713 0,-0.133636 0.07968,-0.03984 0.187584,0.03984 0.267269,0 0.03984,-0.01992 -0.01408,-0.09137 0,-0.133633 0.0315,-0.0945 0.102137,-0.172776 0.133636,-0.267272 0.01407,-0.04226 -0.0315,-0.102134 0,-0.133633 0.0315,-0.0315 0.102137,0.0315 0.133633,0 0.0315,-0.0315 0,-0.08909 0,-0.133635 0.08909,0 0.187587,0.03984 0.267271,0 0.03984,-0.01992 -0.0315,-0.102138 0,-0.133634 0.0315,-0.0315 0.08909,0 0.133633,0 0,-0.08909 -0.03984,-0.187587 0,-0.267271 0.01992,-0.03984 0.102137,0.0315 0.133636,0 0.0315,-0.0315 0,-0.08909 0,-0.133633 0.08909,0 0.187584,0.03984 0.267269,0 0.03984,-0.01992 -0.0315,-0.102137 0,-0.133636 0.0315,-0.0315 0.08909,0 0.133636,0 0.04454,-0.08909 0.102137,-0.172775 0.133633,-0.267269 0.01408,-0.04226 -0.03984,-0.113715 0,-0.133636 0.07968,-0.03984 0.182753,0.02817 0.267271,0 0.05976,-0.01992 0.07729,-0.10546 0.133633,-0.133633 0.03984,-0.01992 0.102138,0.0315 0.133636,0 0.0315,-0.0315 -0.0315,-0.102137 0,-0.133635 0.0315,-0.0315 0.113713,0.03984 0.133636,0 0.03984,-0.07969 -0.063,-0.204275 0,-0.267269 0.063,-0.063 0.187584,0.03984 0.267269,0 0.03984,-0.01992 -0.0315,-0.102137 0,-0.133636 0.0315,-0.0315 0.102137,0.0315 0.133633,0 0.0315,-0.0315 -0.0315,-0.102137 0,-0.133636 0.0315,-0.0315 0.102137,0.0315 0.133636,0 0.0315,-0.0315 -0.03984,-0.113712 0,-0.133633 0.07968,-0.03984 0.193143,0.04942 0.267268,0 0.08288,-0.05525 0.0632,-0.196839 0.133636,-0.267269 0.0315,-0.0315 0.102137,0.0315 0.133636,0 0.0315,-0.0315 -0.0315,-0.102137 0,-0.133635 0.0315,-0.0315 0.102134,0.0315 0.133633,0 0.0315,-0.0315 -0.0315,-0.102138 0,-0.133636 0.0315,-0.0315 0.09379,0.01992 0.133636,0 0.05635,-0.02817 0.07729,-0.10546 0.133633,-0.133633 0.03984,-0.01992 0.102137,0.0315 0.133636,0 0.0315,-0.0315 -0.03984,-0.113716 0,-0.133636 0.07968,-0.03984 0.182753,0.02817 0.267268,0 0.05976,-0.01992 0.07729,-0.105463 0.133636,-0.133636 0.03984,-0.01992 0.102137,0.0315 0.133636,0 0.0315,-0.0315 -0.0315,-0.102134 0,-0.133633 0.03215,-0.03216 0.50238,0.03216 0.534538,0 0.0315,-0.0315 -0.0315,-0.102137 0,-0.133636 0.063,-0.06299 0.227428,0.07968 0.267269,0 0.03984,-0.07968 -0.03984,-0.187584 0,-0.267268 0.02064,-0.04129 0.353099,0.02389 0.400904,0 0.05635,-0.02817 0.07729,-0.105463 0.133636,-0.133636 0.04833,-0.02416 0.575225,0 0.668173,0 0.04455,0 0.102137,0.0315 0.133636,0 0.0315,-0.0315 -0.03984,-0.113713 0,-0.133633 0.03142,-0.01572 0.446752,0 0.534538,0 0.267269,0 0.53454,0 0.801809,0 0.06018,0 0.360235,-0.02035 0.400905,0 0.05635,0.02817 0.07729,0.10546 0.133633,0.133633 0.05298,0.02649 0.373586,-0.02732 0.400904,0 0.0315,0.0315 -0.0315,0.102137 0,0.133636 0.063,0.06299 0.187587,-0.03984 0.267272,0 0.05634,0.02817 0.07729,0.105462 0.133633,0.133635 0.07968,0.03984 0.204274,-0.063 0.267269,0 0.0315,0.0315 -0.0315,0.102135 0,0.133633 0.03105,0.03105 0.529375,-0.01035 0.53454,0 0.03984,0.07968 -0.03984,0.187587 0,0.267269 0.03984,0.07968 0.204274,-0.06299 0.267269,0 0.0315,0.0315 -0.0315,0.102137 0,0.133636 0.03216,0.03216 0.502383,-0.03216 0.53454,0 0.0315,0.0315 -0.0315,0.102137 0,0.133636 0.063,0.06299 0.187585,-0.03984 0.267269,0 0.05635,0.02817 0.07729,0.10546 0.133636,0.133633 0.07968,0.03984 0.187584,-0.03984 0.267269,0 0.05635,0.02817 0.07729,0.105463 0.133633,0.133636 0.07968,0.03984 0.204274,-0.063 0.267271,0 0.0315,0.0315 -0.03984,0.113712 0,0.133635 0.119526,0.05976 0.267269,0 0.400905,0 0.04454,0 0.113713,-0.03984 0.133633,0 0.03984,0.07968 -0.063,0.204272 0,0.267269 0.063,0.063 0.178181,0 0.267269,0 0.356359,0 -0.04454,-0.04454 0.133636,0.133633 0.03216,0.03216 0.502383,-0.03216 0.53454,0 0.0315,0.0315 -0.0315,0.102137 0,0.133636 0.063,0.063 0.187584,-0.03984 0.267269,0 0.05635,0.02817 0.07729,0.105463 0.133636,0.133636 0.07968,0.03984 0.204271,-0.063 0.267268,0 0.0315,0.0315 -0.03984,0.113712 0,0.133633 0.07968,0.03984 0.178179,0 0.267269,0 0.04455,0 0.102137,-0.0315 0.133636,0 0.0315,0.0315 -0.0315,0.102137 0,0.133636 0.063,0.06299 0.204272,-0.063 0.267269,0 0.0315,0.0315 -0.03984,0.113712 0,0.133635 0.119525,0.05976 0.281376,-0.05976 0.400904,0 0.05635,0.02817 0.07729,0.105461 0.133634,0.133633 0.03984,0.01992 0.102137,-0.0315 0.133635,0 0.0315,0.0315 -0.0315,0.102138 0,0.133636 0.0315,0.0315 0.08909,0 0.133636,0 0.08909,0 0.187584,-0.03984 0.267269,0 0.03984,0.01992 -0.0315,0.102137 0,0.133633 0.063,0.063 0.204274,-0.06299 0.267269,0 0.0315,0.0315 -0.0315,0.102137 0,0.133636 0.06682,0.06682 0.334087,-0.06682 0.400904,0 0.063,0.063 -0.03984,0.187584 0,0.267269 0.01992,0.03984 0.102137,-0.0315 0.133636,0 0.0315,0.0315 -0.0315,0.102137 0,0.133636 0.0315,0.0315 0.08909,0 0.133633,0 0.08909,0 0.187587,-0.03984 0.267272,0 0.03984,0.01992 -0.0315,0.102137 0,0.133635 0.0315,0.0315 0.102134,-0.0315 0.133633,0 0.0315,0.0315 -0.0315,0.102135 0,0.133634 0.063,0.063 0.204274,-0.063 0.267269,0 0.0315,0.0315 0,0.08909 0,0.133635 0.08909,0 0.187587,-0.03984 0.267271,0 0.03984,0.01992 -0.0315,0.102137 0,0.133633 0.0315,0.0315 0.09379,-0.01992 0.133633,0 0.05635,0.02817 0.07729,0.105463 0.133636,0.133636 0.03984,0.01992 0.102137,-0.0315 0.133636,0 0.0315,0.0315 -0.0315,0.102137 0,0.133636 0.0315,0.0315 0.102134,-0.0315 0.133633,0 0.0315,0.0315 -0.0315,0.102137 0,0.133633 0.063,0.063 0.204274,-0.063 0.267269,0 0.0315,0.0315 -0.0315,0.102137 0,0.133636 0.0315,0.0315 0.08909,0 0.133635,0 0,0.08909 -0.03984,0.187584 0,0.267269 0.01992,0.03984 0.09379,-0.01992 0.133636,0 0.05635,0.02817 0.07729,0.105462 0.133633,0.133635 0.03984,0.01992 0.102137,-0.0315 0.133636,0 0.0315,0.0315 -0.0315,0.102137 0,0.133636 0.0315,0.0315 0.09379,-0.01992 0.133636,0 0.05634,0.02817 0.07729,0.10546 0.133633,0.133633 0.03984,0.01992 0.102137,-0.0315 0.133636,0 0.0315,0.0315 -0.03984,0.113715 0,0.133636 0.07968,0.03984 0.178178,0 0.267269,0 0.04454,0 0.102137,-0.0315 0.133635,0 0.0315,0.0315 -0.0315,0.102137 0,0.133633 0.0315,0.0315 0.09379,-0.01992 0.133633,0 0.05635,0.02817 0.07729,0.105463 0.133636,0.133636 0.03984,0.01992 0.102137,-0.0315 0.133636,0 0.0315,0.0315 -0.0315,0.102137 0,0.133636 0.063,0.06299 0.204271,-0.063 0.267269,0 0.0315,0.0315 -0.0315,0.102137 0,0.133633 0.0315,0.0315 0.09379,-0.01992 0.133635,0 0.05634,0.02817 0.07729,0.105463 0.133634,0.133635 0.03984,0.01992 0.102137,-0.0315 0.133635,0 0.0315,0.0315 -0.03984,0.113713 0,0.133636 0.07969,0.03984 0.178179,0 0.267269,0 0.04455,0 0.102137,-0.0315 0.133636,0 0.178178,0.178178 -0.222726,0.133633 0.133633,0.133633 0.08909,0 0.187587,-0.03984 0.267272,0 0.03984,0.01992 -0.0315,0.102137 0,0.133636 0.06299,0.063 0.187584,-0.03984 0.267268,0 0.05635,0.02817 0.07729,0.10546 0.133633,0.133633 0.07968,0.03984 0.204275,-0.063 0.267272,0 0.0315,0.0315 -0.0315,0.102137 0,0.133636 0.063,0.063 0.204272,-0.063 0.267269,0 0.0315,0.0315 -0.03984,0.113712 0,0.133636 0.119525,0.05976 0.267269,0 0.400904,0 0.04455,0 0.113713,-0.03984 0.133634,0 0.03984,0.07968 -0.03984,0.187584 0,0.267268 0.01992,0.03984 0.08909,0 0.133635,0 0.04455,0 0.08909,0 0.133636,0 0.313396,0 -0.063,-0.0315 0.267269,0.133636 0.0725,0.03624 0.497972,-0.03656 0.534538,0 0.0315,0.0315 -0.03984,0.113713 0,0.133633 0.07968,0.03984 0.178181,0 0.267271,0 0.267269,0 0.534538,0 0.801807,0 0.489995,0 0.97999,0 1.469982,0 0.04455,0 0.08909,0 0.133636,0 0.04454,0 0.102137,0.0315 0.133636,0 0.0315,-0.0315 -0.0315,-0.102137 0,-0.133633 0.03215,-0.03216 0.50238,0.03216 0.534537,0 0.0315,-0.0315 -0.03984,-0.113715 0,-0.133636 0.08646,-0.04323 0.486537,0.048 0.534541,0 0.0315,-0.0315 -0.03984,-0.113712 0,-0.133635 0.08646,-0.04323 0.486534,0.048 0.534538,0 0.0315,-0.0315 -0.0315,-0.102137 0,-0.133633 0.063,-0.063 0.187584,0.03984 0.267268,0 0.330267,-0.165135 -0.04613,-0.133636 0.267272,-0.133636 0.04454,0 0.113712,0.03984 0.133633,0 0.03984,-0.07968 -0.03984,-0.187584 0,-0.267269 0.03984,-0.07968 0.204274,0.063 0.267271,0 0.0315,-0.0315 -0.03984,-0.113715 0,-0.133636 0.07968,-0.03984 0.178179,0 0.267269,0 0.04455,0 0.102137,0.0315 0.133633,0 0.0315,-0.0315 -0.0315,-0.102137 0,-0.133633 0.063,-0.063 0.204275,0.063 0.267272,0 0.0315,-0.0315 -0.03984,-0.113715 0,-0.133636 0.132942,-0.06647 0.374467,0.05287 0.400905,0 0.03984,-0.07968 -0.03984,-0.187584 0,-0.267268 0.01992,-0.03984 0.09379,0.01992 0.133633,0 0.05634,-0.02817 0.07729,-0.105463 0.133635,-0.133636 0.03984,-0.01992 0.102137,0.0315 0.133633,0 0.0315,-0.0315 -0.0315,-0.102137 0,-0.133636 0.063,-0.063 0.204275,0.063 0.267272,0 0.0315,-0.0315 -0.0315,-0.102134 0,-0.133633 0.063,-0.063 0.204272,0.063 0.267269,0 0.0315,-0.0315 -0.03984,-0.113715 0,-0.133636 0.07968,-0.03984 0.18275,0.02817 0.267269,0 0.05976,-0.01992 0.07729,-0.105463 0.133635,-0.133633 0.03984,-0.01992 0.102138,0.0315 0.133634,0 0.0315,-0.0315 -0.0315,-0.102137 0,-0.133636 0.0315,-0.0315 0.102137,0.0315 0.133635,0 0.07043,-0.07043 0.0632,-0.196839 0.133636,-0.267269 0.0315,-0.0315 0.102137,0.0315 0.133633,0 0.0315,-0.0315 -0.03984,-0.113715 0,-0.133635 0.07968,-0.03984 0.178181,0 0.267272,0 0.04454,0 0.102134,0.0315 0.133633,0 0.0315,-0.0315 -0.0315,-0.102137 0,-0.133636 0.0315,-0.0315 0.09379,0.01992 0.133635,0 0.05635,-0.02817 0.07729,-0.10546 0.133634,-0.133633 0.03984,-0.01992 0.102137,0.0315 0.133635,0 0.0315,-0.0315 -0.03984,-0.113715 0,-0.133636 0.07968,-0.03984 0.187585,0.03984 0.267269,0 0.03984,-0.01992 -0.0315,-0.102137 0,-0.133636 0.063,-0.06299 0.227428,0.07968 0.267272,0 0.03984,-0.07968 -0.063,-0.204271 0,-0.267268 0.06299,-0.063 0.187584,0.03984 0.267269,0 0.03984,-0.01992 -0.0315,-0.102138 0,-0.133634 0.0315,-0.0315 0.09379,0.01992 0.133633,0 0.112691,-0.05634 0.15458,-0.210925 0.267271,-0.267271 0.03984,-0.01992 0.102137,0.0315 0.133633,0 0.0315,-0.0315 -0.0315,-0.102137 0,-0.133633 0.0315,-0.0315 0.102137,0.0315 0.133636,0 0.0315,-0.0315 -0.0315,-0.102137 0,-0.133636 0.0315,-0.0315 0.102137,0.0315 0.133636,0 0.0315,-0.0315 -0.03984,-0.113713 0,-0.133636 0.07968,-0.03984 0.19314,0.04942 0.267269,0 0.08288,-0.05525 0.0632,-0.196836 0.133635,-0.267269 0.0315,-0.0315 0.102135,0.0315 0.133633,0 0.0315,-0.0315 -0.0315,-0.102137 0,-0.133633 0.0315,-0.0315 0.102138,0.0315 0.133636,0 0.0315,-0.0315 -0.03984,-0.113715 0,-0.133635 0.07968,-0.03984 0.204272,0.06299 0.267269,0 0.063,-0.063 -0.03984,-0.187585 0,-0.267269 0.01992,-0.03984 0.102137,0.0315 0.133636,0 0.0315,-0.0315 -0.0315,-0.102137 0,-0.133636 0.0315,-0.0315 0.102137,0.0315 0.133633,0 0.0315,-0.0315 0,-0.08909 0,-0.133636 0.08909,0 0.182753,0.02817 0.267271,0 0.119526,-0.03984 0.154578,-0.210923 0.267269,-0.267269 0.03984,-0.01992 0.113713,0.03984 0.133633,0 0.03984,-0.07968 -0.03984,-0.187584 0,-0.267268 0.01992,-0.03984 0.102137,0.0315 0.133636,0 0.0315,-0.0315 0,-0.08909 0,-0.133636 0.08909,0 0.187584,0.03984 0.267269,0 0.03984,-0.01992 -0.0315,-0.102137 0,-0.133633 0.0315,-0.0315 0.102137,0.0315 0.133636,0 0.0315,-0.0315 -0.0315,-0.102137 0,-0.133636 0.0315,-0.0315 0.113712,0.03984 0.133635,0 0.03984,-0.07969 -0.063,-0.204274 0,-0.267269 0.063,-0.063 0.182751,0.02817 0.267269,0 0.417116,-0.139038 -0.04454,-0.08909 0.133633,-0.267269 0.0315,-0.0315 0.102137,0.0315 0.133636,0 0.0315,-0.0315 -0.03984,-0.113715 0,-0.133635 0.07969,-0.03984 0.193143,0.04942 0.267269,0 0.08288,-0.05525 0.0632,-0.196837 0.133636,-0.267269 0.0315,-0.0315 0.102137,0.0315 0.133635,0 0.0315,-0.0315 -0.0315,-0.102137 0,-0.133636 0.0315,-0.0315 0.102135,0.0315 0.133634,0 0.0315,-0.0315 -0.03984,-0.113713 0,-0.133636 0.07968,-0.03984 0.187586,0.03984 0.267268,0 0.03984,-0.01992 -0.0315,-0.102134 0,-0.133633 0.0315,-0.0315 0.113716,0.03984 0.133636,0 0.03984,-0.07968 -0.06299,-0.204274 0,-0.267269 0.063,-0.063 0.187584,0.03984 0.267269,0 0.03984,-0.01992 -0.0315,-0.102137 0,-0.133636 0.0315,-0.0315 0.102137,0.0315 0.133636,0 0.07043,-0.07043 0.05076,-0.212018 0.133636,-0.267268 0.07412,-0.04942 0.187584,0.03984 0.267268,0 0.03984,-0.01992 -0.0315,-0.102137 0,-0.133636 0.0315,-0.0315 0.102137,0.0315 0.133633,0 0.0315,-0.0315 -0.0315,-0.102137 0,-0.133636 0.0315,-0.0315 0.113716,0.03984 0.133636,0 0.03984,-0.07968 -0.06299,-0.204271 0,-0.267269 0.063,-0.06299 0.187584,0.03984 0.267269,0 0.03984,-0.01992 -0.0315,-0.102137 0,-0.133633 0.0315,-0.0315 0.102137,0.0315 0.133636,0 0.0315,-0.0315 -0.0315,-0.102137 0,-0.133636 0.0315,-0.0315 0.09657,0.02471 0.133636,0 0.10483,-0.06989 0.162435,-0.197381 0.267268,-0.267268 0.03706,-0.02471 0.102138,0.0315 0.133634,0 0.0315,-0.0315 -0.0315,-0.102138 0,-0.133636 0.0315,-0.0315 0.102137,0.0315 0.133635,0 0.0315,-0.0315 -0.03984,-0.113713 0,-0.133636 0.07969,-0.03984 0.204274,0.063 0.267269,0 0.063,-0.063 -0.03984,-0.187584 0,-0.267269 0.01992,-0.03984 0.0938,0.01992 0.133636,0 0.112691,-0.05634 0.154577,-0.210923 0.267269,-0.267269 0.03984,-0.01992 0.113715,0.03984 0.133635,0 0.03984,-0.07968 -0.063,-0.204274 0,-0.267268 0.063,-0.063 0.187585,0.03984 0.267269,0 0.03984,-0.01992 -0.0315,-0.102138 0,-0.133636 0.0315,-0.0315 0.102137,0.0315 0.133636,0 0.0315,-0.0315 -0.03984,-0.113713 0,-0.133636 0.07969,-0.03984 0.204272,0.063 0.267269,0 0.063,-0.063 -0.03984,-0.187584 0,-0.267269 0.01992,-0.03984 0.102137,0.0315 0.133636,0 0.0315,-0.0315 -0.03984,-0.113712 0,-0.133636 0.07968,-0.03984 0.187584,0.03984 0.267269,0 0.356359,-0.178178 -0.400905,-0.133633 0.133635,-0.133633 0.04454,0 0.113713,0.03984 0.133633,0 0.03984,-0.07968 -0.06299,-0.204274 0,-0.267269 0.063,-0.063 0.187585,0.03984 0.267269,0 0.03984,-0.01992 -0.0315,-0.102137 0,-0.133635 0.0315,-0.0315 0.102137,0.0315 0.133636,0 0.0315,-0.0315 -0.03984,-0.113713 0,-0.133636 0.07968,-0.03984 0.204274,0.063 0.267269,0 0.063,-0.063 -0.03984,-0.187584 0,-0.267269 0.01992,-0.03984 0.102137,0.0315 0.133636,0 0.0315,-0.0315 -0.0315,-0.102137 0,-0.133636 0.0315,-0.0315 0.09138,0.01408 0.133635,0 0.09449,-0.0315 0.196837,-0.0632 0.267269,-0.133633 0.162764,-0.162766 0.0626,-0.298569 0.267269,-0.400904 0.356359,0 -0.04454,0.04454 0.133636,-0.133636 0.0315,-0.0315 0.102137,0.0315 0.133633,0 0.0315,-0.0315 -0.03984,-0.113713 0,-0.133633 0.07968,-0.03984 0.193143,0.04942 0.267271,0 0.08288,-0.05525 0.07838,-0.184394 0.133633,-0.267272 0.03776,-0.05664 0.345615,-0.373258 0.400905,-0.400902 0.03984,-0.01992 0.102137,0.0315 0.133636,0 0.0315,-0.0315 -0.0315,-0.102137 0,-0.133635 0.07043,-0.07043 0.172775,-0.102137 0.267269,-0.133636 0.04226,-0.01408 0.113712,0.03984 0.133635,0 0,-0.757264 -0.08909,-0.04455 0.133634,-0.267269 0.0315,-0.0315 -0.03984,-0.113713 0,-0.133636 0.07968,-0.03984 0.204274,0.063 0.267268,0 0.063,-0.06299 -0.03984,-0.187584 0,-0.267269 0.01992,-0.03984 0.102137,0.0315 0.133636,0 0.0315,-0.0315 -0.03984,-0.113712 0,-0.133633 0.757262,0 0.04454,0.08909 0.267269,-0.133635 0.0315,-0.0315 0.113715,0.03984 0.133636,0 0,-0.757264 -0.08909,-0.04455 0.133635,-0.267269 0.0315,-0.0315 -0.03984,-0.113716 0,-0.133636 0.757262,0 0.04454,0.08909 0.267272,-0.133636 0.0315,-0.0315 0.11371,0.03984 0.13363,0 0.0398,-0.07968 -0.0398,-0.187584 0,-0.267269 0.0199,-0.03984 0.0914,0.01408 0.13364,0 0.0945,-0.0315 0.18439,-0.07838 0.26727,-0.133633 0.0524,-0.03495 0.0891,-0.08909 0.13363,-0.133635 0.13364,-0.133636 0.26727,-0.267269 0.40091,-0.400905 0.0445,-0.04454 0.0773,-0.105463 0.13363,-0.133636 0.0398,-0.01992 0.10214,0.0315 0.13363,0 0.0315,-0.0315 -0.0315,-0.102134 0,-0.133633 0.0315,-0.0315 0.11372,0.03984 0.13364,0 0.0398,-0.07968 -0.063,-0.204274 0,-0.267269 0.063,-0.063 0.18758,0.03984 0.26727,0 0.0398,-0.01992 -0.0315,-0.102137 0,-0.133636 0.0315,-0.0315 0.10214,0.0315 0.13363,0 0.0315,-0.0315 -0.0315,-0.102137 0,-0.133635 0.0315,-0.0315 0.11372,0.03984 0.13364,0 0.0398,-0.07969 -0.063,-0.204272 0,-0.267269 0.063,-0.063 0.18758,0.03984 0.26727,0 0.0398,-0.01992 -0.0315,-0.102137 0,-0.133636 0.0315,-0.0315 0.10213,0.0315 0.13363,0 0.0315,-0.0315 -0.0315,-0.102134 0,-0.133633 0.0315,-0.0315 0.11372,0.03984 0.13364,0 0,-0.757264 -0.0891,-0.04454 0.13363,-0.267271 0.0315,-0.0315 -0.0398,-0.113713 0,-0.133634 0.0797,-0.03984 0.18759,0.03984 0.26727,0 0.0398,-0.01992 -0.0315,-0.102137 0,-0.133635 0.0315,-0.0315 0.0938,0.01992 0.13364,0 0.0563,-0.02817 0.0739,-0.113713 0.13363,-0.133633 0.0845,-0.02817 0.20428,0.06299 0.26727,0 0.063,-0.063 -0.0282,-0.182753 0,-0.267272 0.13904,-0.417116 0.0891,0.04455 0.26727,-0.133633 0.0315,-0.0315 -0.0315,-0.102137 0,-0.133636 0.0315,-0.0315 0.11371,0.03984 0.13363,0 0.0399,-0.07968 -0.063,-0.204274 0,-0.267269 0.063,-0.063 0.18759,0.03984 0.26727,0 0.0398,-0.01992 -0.0315,-0.102137 0,-0.133635 0.0315,-0.0315 0.10214,0.0315 0.13364,0 0.0315,-0.0315 -0.0315,-0.102137 0,-0.133633 0.0315,-0.0315 0.11371,0.03984 0.13364,0 0.0398,-0.07968 -0.063,-0.204275 0,-0.267272 0.063,-0.063 0.18758,0.03984 0.26726,0 0.0399,-0.01992 -0.0315,-0.102137 0,-0.133633 0.2765,-0.276495 -0.0108,0.422521 0.26727,-0.133636 0.0199,-0.03984 -0.0398,-0.113712 0,-0.133636 0.13295,-0.06647 0.37447,0.05287 0.40091,0 0,-0.757261 -0.0891,-0.04454 0.13363,-0.267268 0.0315,-0.0315 -0.0398,-0.113713 0,-0.133634 0.75726,0 0.0446,0.08909 0.26727,-0.133635 0.0315,-0.0315 0.11371,0.03984 0.13364,0 0,-0.757264 -0.0891,-0.04455 0.13363,-0.267269 0.0315,-0.0315 -0.0398,-0.113715 0,-0.133636 0.0797,-0.03984 0.18759,0.03984 0.26727,0 0.0398,-0.01992 -0.0315,-0.102137 0,-0.133636 0.0315,-0.0315 0.10214,0.0315 0.13364,0 0.0315,-0.0315 -0.0315,-0.102134 0,-0.133633 0.0315,-0.0315 0.0966,0.02471 0.13363,0 0.10483,-0.06989 0.17818,-0.178181 0.26727,-0.267269 0.0446,-0.04454 0.0773,-0.105462 0.13363,-0.133635 0.0399,-0.01992 0.10214,0.0315 0.13364,0 0.0315,-0.0315 -0.0315,-0.102137 0,-0.133636 0.0315,-0.0315 0.10214,0.0315 0.13363,0 0.0315,-0.0315 -0.0398,-0.113713 0,-0.133633 0.0797,-0.03984 0.18759,0.03984 0.26727,0 0.0398,-0.01992 -0.0315,-0.102137 0,-0.133636 0.0315,-0.0315 0.10214,0.0315 0.13364,0 0.0315,-0.0315 -0.0315,-0.102137 0,-0.133636 0.0315,-0.0315 0.10213,0.0315 0.13363,0 0.0704,-0.07043 0.0632,-0.196836 0.13364,-0.267269 0.0315,-0.0315 0.10214,0.0315 0.13363,0 0.0315,-0.0315 -0.0398,-0.113712 0,-0.133633 0.0797,-0.03984 0.18759,0.03984 0.26727,0 0.0398,-0.01992 -0.0315,-0.102137 0,-0.133635 0.0315,-0.0315 0.0938,0.01992 0.13364,0 0.0563,-0.02817 0.0773,-0.105463 0.13363,-0.133636 0.0398,-0.01992 0.10214,0.0315 0.13364,0 0.0315,-0.0315 -0.0315,-0.102137 0,-0.133633 0.0315,-0.0315 0.0891,0 0.13363,0 0.0891,0 0.18759,0.03984 0.26727,0 0.0398,-0.01992 -0.0315,-0.102137 0,-0.133636 0.063,-0.063 0.18759,0.03984 0.26727,0 0.0563,-0.02817 0.0773,-0.105463 0.13363,-0.133636 0.0399,-0.01992 0.0891,0 0.13364,0 0.0445,0 0.0891,0 0.13364,0"
       id="path3723"
       inkscape:connector-curvature="0" />
    <path
       style="fill:none;stroke:#000000;stroke-width:0.26458332px;stroke-linecap:butt;stroke-linejoin:miter;stroke-opacity:1"
       d="m 109.84778,65.410952 c -0.57909,-0.133635 -1.1607,-0.256765 -1.73726,-0.400902 -0.0432,-0.0108 0.10214,0.0315 0.13364,0 0.0315,-0.0315 -0.0315,-0.102137 0,-0.133635 0.0668,-0.06682 0.33408,0.06682 0.4009,0 0.0315,-0.0315 -0.0315,-0.102138 0,-0.133636 0.0357,-0.03573 0.58293,0.04262 0.66818,0 0.0563,-0.02817 0.0773,-0.10546 0.13363,-0.133633 0.0398,-0.01992 0.0891,0 0.13363,0 0.0446,0 0.0891,0 0.13364,0 0.063,0 0.66212,0.0061 0.66817,0 0.17818,-0.178181 -0.22272,-0.133636 0.13364,-0.133636 0.0324,0 0.3966,-0.0043 0.4009,0 0.0315,0.0315 0,0.08909 0,0.133636 0,0.04454 0,0.08909 0,0.133633 0,0.356359 0.0446,-0.04454 -0.13363,0.133636 -0.0315,0.0315 0.0315,0.102137 0,0.133635 -0.0315,0.0315 -0.10214,-0.0315 -0.13364,0 -0.063,0.06299 0.063,0.204272 0,0.267269 -0.0315,0.0315 -0.11371,-0.03984 -0.13363,0 0,0.757264 0.0891,0.04454 -0.13364,0.267269 -0.063,0.063 0.063,0.204274 0,0.267269 -0.0315,0.0315 -0.10213,-0.0315 -0.13363,0 -0.063,0.063 0.063,0.204274 0,0.267271 -0.17818,0.178179 -0.13364,-0.222726 -0.13364,0.133633 0,0.04455 0,0.08909 0,0.133636 0,0.04454 0.0315,0.102137 0,0.133633 -0.0315,0.0315 -0.10213,-0.0315 -0.13363,0 -0.063,0.063 0.063,0.204275 0,0.267272 -0.0315,0.0315 -0.10214,-0.0315 -0.13363,0 -0.063,0.06299 0.063,0.204271 0,0.267269 -0.0315,0.0315 -0.10214,-0.0315 -0.13364,0 -0.0315,0.0315 0.0315,0.102137 0,0.133635 -0.0315,0.0315 -0.13705,0.04441 -0.13364,0 0.0449,-0.584173 0.17819,-1.158171 0.26728,-1.737254"
       id="path3725"
       inkscape:connector-curvature="0" />
    <path
       style="fill:none;stroke:#000000;stroke-width:0.26458332px;stroke-linecap:butt;stroke-linejoin:miter;stroke-opacity:1"
       d="m 50.246671,90.667924 c -0.222726,-0.178181 -0.423595,-0.387792 -0.668173,-0.534541 -0.0382,-0.02291 -0.0315,0.102137 0,0.133636 0.03149,0.0315 0.102137,-0.0315 0.133633,0 0.063,0.063 -0.07968,0.227428 0,0.267269 0.164274,0.08214 0.452403,-0.03064 0.53454,0.133636 0.101579,0.203155 -0.133636,0.441039 -0.133636,0.668173 0,0.04454 0.102137,-0.0315 0.133636,0 0.0315,0.0315 -0.0315,0.102137 0,0.133636 0.0315,0.0315 0.102137,-0.0315 0.133633,0 0.063,0.06299 -0.063,0.204271 0,0.267269 0.0315,0.0315 0.113715,-0.03984 0.133636,0 0.03984,0.07968 -0.03984,0.187584 0,0.267268 0.01992,0.03984 0.102137,-0.0315 0.133636,0 0.0315,0.0315 -0.0315,0.102138 0,0.133636 0.0315,0.0315 0.102137,-0.0315 0.133633,0 0.0315,0.0315 -0.0315,0.102137 0,0.133633 0.0315,0.0315 0.102137,0.0315 0.133635,0 0.0315,-0.0315 -0.0315,-0.102134 0,-0.133633 0.0315,-0.0315 0.113713,0.03984 0.133636,0 0.05976,-0.119528 0,-0.267269 0,-0.400904 0,-0.04455 -0.03984,-0.113713 0,-0.133636 0.07969,-0.03984 0.187584,0.03984 0.267269,0 0.07969,-0.03984 -0.063,-0.204272 0,-0.267269 0.0315,-0.0315 0.102137,0.0315 0.133636,0 0.06681,-0.06682 -0.06682,-0.334087 0,-0.400905 0.0315,-0.0315 0.102134,0.0315 0.133633,0 0.03216,-0.03215 -0.03216,-0.502383 0,-0.534537 0.0315,-0.0315 0.102137,0.0315 0.133636,0 0.0043,-0.0043 0,-0.368496 0,-0.400905 0,-0.04454 0,-0.08909 0,-0.133636 0,-0.04454 -0.0315,-0.102137 0,-0.133633 0.0315,-0.0315 0.102137,0.0315 0.133633,0 0.06682,-0.06682 -0.06682,-0.334087 0,-0.400904 0.0315,-0.0315 0.102137,0.0315 0.133635,0 0.0315,-0.0315 0.03531,-0.160796 0,-0.133636 -0.601263,0.46251 -1.158168,0.979987 -1.737251,1.469983"
       id="path3727"
       inkscape:connector-curvature="0" />
  </g>
</svg>
